<svg width="133" height="34" viewBox="0 0 133 34" fill="none" xmlns="http://www.w3.org/2000/svg">
<path d="M7.488 33V32.52L9.456 32.04C10.768 31.752 11.424 30.952 11.424 29.64V2.28H7.344C6.16 2.28 5.312 2.6 4.8 3.24C4.288 3.848 3.744 4.696 3.168 5.784L1.44 9.144H0.96L1.2 1.32H28.896L29.088 9.144H28.608L26.88 5.784C26.336 4.696 25.808 3.848 25.296 3.24C24.784 2.6 23.936 2.28 22.752 2.28H18.672V29.64C18.672 30.952 19.328 31.752 20.64 32.04L22.608 32.52V33H7.488ZM31.1498 33V32.52L32.2538 32.088C32.7978 31.864 33.1658 31.576 33.3578 31.224C33.5818 30.84 33.6938 30.328 33.6938 29.688V4.632C33.6938 3.992 33.5978 3.496 33.4058 3.144C33.2458 2.76 32.8618 2.456 32.2538 2.232L31.1498 1.8V1.32H54.1418L54.4298 8.712H53.9498L51.8858 4.2C51.5978 3.624 51.2938 3.16 50.9738 2.808C50.6538 2.456 50.1738 2.28 49.5338 2.28H40.8938V16.152H46.0298C46.6698 16.152 47.1498 15.992 47.4698 15.672C47.8218 15.32 48.1258 14.856 48.3818 14.28L49.3418 12.36H49.8218V21H49.3418L48.3818 18.984C48.0938 18.408 47.7898 17.96 47.4698 17.64C47.1498 17.288 46.6698 17.112 46.0298 17.112H40.8938V32.04H50.5898C51.2298 32.04 51.7258 31.88 52.0778 31.56C52.4298 31.208 52.7178 30.728 52.9418 30.12L54.9098 25.608H55.3898L55.1018 33H31.1498ZM57.6788 33V32.52L58.6388 32.184C59.7268 31.832 60.2708 30.92 60.2708 29.448V4.872C60.2708 4.232 60.1908 3.72 60.0308 3.336C59.9028 2.952 59.5348 2.632 58.9268 2.376L57.6788 1.8V1.32H66.9428L75.8228 24.552L84.1748 1.32H93.6308V1.8L92.8628 2.088C92.2548 2.312 91.8388 2.632 91.6148 3.048C91.3908 3.432 91.2788 3.944 91.2788 4.584V29.688C91.2788 30.328 91.3588 30.824 91.5188 31.176C91.6788 31.528 92.0628 31.832 92.6708 32.088L93.6308 32.52V33H81.6788V32.52L82.6868 32.088C83.2948 31.832 83.6788 31.528 83.8387 31.176C83.9988 30.824 84.0788 30.328 84.0788 29.688V18.888L84.1748 5.16L74.1428 33H71.7428L61.2788 5.496L61.4228 17.448V29.544C61.4228 30.248 61.5188 30.824 61.7108 31.272C61.9348 31.688 62.3508 31.992 62.9588 32.184L64.0148 32.52V33H57.6788ZM95.7435 33V32.52L96.7035 32.136C97.3435 31.912 97.7595 31.608 97.9515 31.224C98.1755 30.84 98.2875 30.328 98.2875 29.688V4.632C98.2875 3.992 98.1915 3.48 97.9995 3.096C97.8075 2.712 97.3755 2.408 96.7035 2.184L95.7435 1.8V1.32H108.08V1.8L107.12 2.184C106.48 2.408 106.048 2.712 105.824 3.096C105.632 3.48 105.536 3.992 105.536 4.632V29.688C105.536 30.328 105.632 30.84 105.824 31.224C106.048 31.576 106.48 31.88 107.12 32.136L108.08 32.52V33H95.7435ZM120.501 33.864C118.741 33.864 116.949 33.64 115.125 33.192C113.301 32.776 111.781 32.216 110.565 31.512L110.805 24.984H111.285L112.773 28.104C113.221 29 113.701 29.8 114.213 30.504C114.725 31.176 115.429 31.704 116.325 32.088C116.965 32.408 117.573 32.632 118.149 32.76C118.757 32.856 119.429 32.904 120.165 32.904C122.117 32.904 123.653 32.376 124.773 31.32C125.925 30.264 126.501 28.904 126.501 27.24C126.501 25.672 126.117 24.456 125.349 23.592C124.581 22.696 123.349 21.832 121.653 21L119.685 20.136C116.933 18.92 114.773 17.528 113.205 15.96C111.669 14.36 110.901 12.248 110.901 9.624C110.901 7.736 111.381 6.104 112.341 4.728C113.333 3.352 114.693 2.296 116.421 1.56C118.181 0.823998 120.229 0.455998 122.565 0.455998C124.261 0.455998 125.861 0.679998 127.365 1.128C128.901 1.576 130.229 2.184 131.349 2.952L131.061 8.712H130.581L128.613 5.112C128.069 3.992 127.525 3.208 126.981 2.76C126.437 2.28 125.813 1.944 125.109 1.752C124.693 1.624 124.309 1.544 123.957 1.512C123.605 1.448 123.157 1.416 122.613 1.416C120.981 1.416 119.605 1.896 118.485 2.856C117.365 3.784 116.805 5.048 116.805 6.648C116.805 8.28 117.237 9.592 118.101 10.584C118.965 11.544 120.229 12.408 121.893 13.176L124.101 14.136C127.173 15.48 129.381 16.92 130.725 18.456C132.069 19.96 132.741 21.912 132.741 24.312C132.741 27.128 131.669 29.432 129.525 31.224C127.413 32.984 124.405 33.864 120.501 33.864Z" fill="#FEEFE0"/>
</svg>
